<?xml version="1.0" encoding="UTF-8" standalone="no"?>
<!-- Generator: Adobe Illustrator 23.0.1, SVG Export Plug-In . SVG Version: 6.00 Build 0)  -->

<svg
   version="1.1"
   x="0px"
   y="0px"
   viewBox="0 0 512 512"
   style="enable-background:new 0 0 512 512;"
   xml:space="preserve"
   id="svg6"
   sodipodi:docname="modding-logo-small.svg"
   inkscape:version="1.3 (0e150ed6c4, 2023-07-21)"
   xmlns:inkscape="http://www.inkscape.org/namespaces/inkscape"
   xmlns:sodipodi="http://sodipodi.sourceforge.net/DTD/sodipodi-0.dtd"
   xmlns="http://www.w3.org/2000/svg"
   xmlns:svg="http://www.w3.org/2000/svg"><defs
   id="defs6" /><sodipodi:namedview
   id="namedview6"
   pagecolor="#505050"
   bordercolor="#eeeeee"
   borderopacity="1"
   inkscape:showpageshadow="0"
   inkscape:pageopacity="0"
   inkscape:pagecheckerboard="0"
   inkscape:deskcolor="#505050"
   inkscape:zoom="1.5878906"
   inkscape:cx="256"
   inkscape:cy="256"
   inkscape:window-width="1920"
   inkscape:window-height="1009"
   inkscape:window-x="-8"
   inkscape:window-y="-8"
   inkscape:window-maximized="1"
   inkscape:current-layer="svg6" />&#10;<style
   type="text/css"
   id="style1">&#10;	.st0{fill:#820C9B;}&#10;	.st1{fill:#AF55D9;}&#10;	.st2{fill:#8D3EE5;}&#10;</style>&#10;<g
   id="Back">&#10;	<path
   class="st0"
   d="M309.2,306.1c0-72.3-58.8-131.1-131.1-131.1c-5.2,0-10.4,0.3-15.5,0.9l-8.8-67.5   c-2.3-17.6-11.3-33.3-25.4-44.1c-14.1-10.8-31.5-15.6-49.1-13.3C61.7,53.2,46,62.2,35.2,76.3C26.9,87,22.2,99.7,21.5,112.9l0,0   l0,0.2c-0.2,3-0.1,6,0.1,9c0,0-0.2,24.6,0.4,32.8c4.6,65.9,33.9,261.9,33.9,261.9c2.3,17.6,11.3,33.3,25.4,44.1   c11.8,9.1,25.9,13.8,40.5,13.8c2.9,0,5.8-0.2,8.7-0.6c9.4-1.2,18.3-4.4,26.3-9.3c7.1,1.2,14.3,1.8,21.4,1.8   c72.3,0,131.1-58.8,131.1-131.1c0-5-0.3-9.9-0.8-14.7C308.9,316,309.2,311.1,309.2,306.1z"
   id="path1"
   style="fill:#9b0c0c;fill-opacity:1" />&#10;	<path
   d="M80.8,379.2"
   id="path2" />&#10;	<path
   d="M46.3,116.9"
   id="path3" />&#10;	<path
   class="st0"
   d="M482.7,76c-9.5-17.3-26-29.2-45.2-32.7l-51.7-7c-17.6-2.4-35.1,2.3-49.3,13.1c-14.2,10.8-23.3,26.5-25.7,44.1   c0,0-22,137.6-24.6,183.9c-0.4,7.3-0.2,20.9,0,29.4c0.2,7.6,0.7,15.2,2,22.5c-14.2,12.2-23.3,30.3-23.3,50.5v29.4   c0,36.7,29.8,66.5,66.5,66.5s66.5-29.8,66.5-66.5v-29.4c0-4.9-0.6-9.7-1.6-14.3c6.8-6.1,12.5-13.6,16.4-22.3l73.3-180.7   c5.3-12.8,5.9-26.5,5.9-40C491.8,106.3,490.6,90.4,482.7,76z"
   id="path4"
   style="fill:#9b0c0c;fill-opacity:1" />&#10;</g>&#10;<g
   id="Letters">&#10;	<path
   class="st1"
   d="M178,199.9c-12.9,0-25.2,2.3-36.7,6.5l-12.3-94.9c-2.9-22.8-23.8-38.8-46.6-35.9s-38.8,23.8-35.9,46.6   l33.9,261.9c2.9,22.8,23.8,38.8,46.6,35.9c9.2-1.2,17.3-5.3,23.5-11.3c8.7,2.3,17.9,3.6,27.4,3.6c58.6,0,106.2-47.5,106.2-106.2   S236.7,199.9,178,199.9z M178,328.8c-12.5,0-22.7-10.2-22.7-22.7c0-12.5,10.2-22.7,22.7-22.7c12.5,0,22.7,10.2,22.7,22.7   C200.7,318.6,190.6,328.8,178,328.8z"
   id="path5"
   style="fill:#d95555;fill-opacity:1" />&#10;	<circle
   class="st2"
   cx="331.3"
   cy="379.8"
   r="41.6"
   id="circle5"
   style="fill:#e53e3e;fill-opacity:1" />&#10;	<path
   class="st2"
   d="M433,67.8L382.4,61c-22.7-3.1-43.9,13.1-47,35.8l-24.6,183.9l0,0l0,0v0l0,0c-3.1,22.7,12.9,43.7,35.6,46.7   c19.2,2.6,37.2-8.4,44.1-25.7l0,0c0,0,0,0,0,0l72.2-178.2C472.6,99.8,458.4,72.4,433,67.8z"
   id="path6"
   style="fill:#e53e3e;fill-opacity:1" />&#10;</g>&#10;</svg>
